<svg width="150" height="13" viewBox="0 0 150 13" fill="none" xmlns="http://www.w3.org/2000/svg">
<path d="M5.42894 5.8315H11.2782C11.2708 7.58003 10.7453 9.02074 9.70187 10.1536C8.65842 11.2865 7.31684 11.8522 5.67713 11.8507C4.92546 11.8708 4.17769 11.7361 3.4803 11.4549C2.78291 11.1737 2.15082 10.7521 1.62332 10.2162C0.541107 9.12508 0 7.75295 0 6.09982C0 4.4467 0.532911 3.06635 1.59872 1.9588C2.11874 1.42048 2.74516 0.99634 3.43809 0.713394C4.13102 0.430448 4.87528 0.294901 5.62347 0.315371C6.91466 0.294022 8.17525 0.709219 9.20102 1.49372C10.1962 2.23293 10.8789 3.31764 11.115 4.53464H8.67556C8.52719 4.14626 8.29863 3.7935 8.00477 3.49939C7.70661 3.20734 7.35209 2.9791 6.96281 2.8286C6.55328 2.66785 6.11707 2.58591 5.67713 2.58711C5.23528 2.5709 4.79512 2.64998 4.38655 2.81896C3.97797 2.98795 3.61054 3.24289 3.30923 3.56647C2.68874 4.25911 2.36235 5.16615 2.3992 6.09535C2.38844 6.72001 2.528 7.33811 2.80614 7.89754C3.06585 8.4095 3.46607 8.83686 3.95991 9.12956C4.48067 9.43281 5.0746 9.58748 5.67713 9.57675C6.13498 9.57958 6.58954 9.49927 7.01871 9.33974C7.41886 9.19247 7.78425 8.9641 8.09197 8.66895C8.38067 8.39372 8.60315 8.05656 8.74265 7.68288H5.42894V5.8315Z" fill="white"/>
<path d="M18.1606 11.8507C17.3393 11.8623 16.5289 11.6613 15.8083 11.2671C15.1215 10.8902 14.5538 10.3287 14.1694 9.646C13.7745 8.94489 13.5717 8.152 13.5813 7.34742C13.5639 6.74959 13.6705 6.15465 13.8945 5.6001C14.1185 5.04555 14.4549 4.54342 14.8826 4.12539C15.314 3.70123 15.8268 3.36899 16.3903 3.14876C16.9537 2.92854 17.556 2.82493 18.1606 2.84418C18.7623 2.82659 19.3614 2.93104 19.9217 3.15123C20.482 3.37143 20.9919 3.70281 21.4206 4.12539C21.8483 4.54342 22.1848 5.04555 22.4088 5.6001C22.6328 6.15465 22.7394 6.74959 22.7219 7.34742C22.7377 7.94463 22.6297 8.53864 22.4045 9.09201C22.1794 9.64539 21.8421 10.1461 21.4139 10.5627C20.9861 10.9851 20.4774 11.3168 19.9184 11.5381C19.3594 11.7594 18.7616 11.8657 18.1606 11.8507ZM18.1606 9.68624C18.4606 9.69638 18.7593 9.64329 19.0375 9.53042C19.3156 9.41755 19.5669 9.24743 19.7749 9.03111C19.9856 8.80582 20.1496 8.54105 20.2574 8.25208C20.3653 7.96311 20.4148 7.65564 20.4033 7.34742C20.4148 7.03954 20.3652 6.73243 20.2573 6.44383C20.1495 6.15523 19.9855 5.89085 19.7749 5.66598C19.5659 5.44822 19.3133 5.27709 19.0335 5.1638C18.7538 5.05051 18.4532 4.99763 18.1516 5.0086C17.8503 4.99766 17.5502 5.05057 17.2708 5.16387C16.9914 5.27716 16.7391 5.44828 16.5306 5.66598C16.3199 5.89085 16.156 6.15523 16.0481 6.44383C15.9403 6.73243 15.8907 7.03954 15.9022 7.34742C15.9002 7.67079 15.9562 7.99193 16.0677 8.29548C16.1663 8.57356 16.3243 8.82685 16.5306 9.03781C16.7334 9.24295 16.9761 9.40428 17.2438 9.51183C17.5346 9.63084 17.8464 9.69016 18.1606 9.68624Z" fill="white"/>
<path d="M25.5437 11.6136V0H27.8333V11.6136H25.5437Z" fill="white"/>
<path d="M37.4279 0H39.7175V11.6136H38.0249L37.7588 10.9026C37.0243 11.5389 36.0809 11.8821 35.1092 11.8663C34.3078 11.8781 33.5176 11.6767 32.8196 11.2827C32.1487 10.9016 31.5974 10.341 31.2276 9.66386C30.8405 8.95388 30.6433 8.15595 30.6552 7.34739C30.6444 6.54393 30.8416 5.75134 31.2276 5.04658C31.5991 4.37298 32.1502 3.81567 32.8196 3.43668C33.517 3.04105 34.3075 2.83881 35.1092 2.85086C35.9341 2.83982 36.7428 3.08002 37.4279 3.53954V0ZM33.6268 9.02214C33.8414 9.24133 34.0989 9.414 34.3832 9.5294C34.6675 9.6448 34.9724 9.70047 35.2791 9.69293C35.5864 9.70173 35.892 9.64664 36.1769 9.53117C36.4617 9.41571 36.7194 9.24238 36.9338 9.02214C37.1503 8.80154 37.3202 8.53951 37.4331 8.25175C37.5461 7.96399 37.5998 7.6564 37.5911 7.34739C37.6002 7.03934 37.5466 6.73266 37.4336 6.44593C37.3206 6.15921 37.1505 5.89842 36.9338 5.67937C36.7188 5.4599 36.461 5.28706 36.1763 5.17165C35.8916 5.05624 35.5862 5.00073 35.2791 5.00858C34.9724 5.00104 34.6675 5.0567 34.3832 5.1721C34.0989 5.2875 33.8414 5.46018 33.6268 5.67937C33.4087 5.89901 33.2378 6.16081 33.1244 6.44876C33.011 6.73671 32.9575 7.04477 32.9672 7.3541C32.9583 7.66234 33.0121 7.96915 33.1255 8.2559C33.2389 8.54265 33.4095 8.80336 33.6268 9.02214Z" fill="white"/>
<path d="M57.0105 11.6136H54.5509C54.343 11.39 54.1485 11.1664 53.9718 10.9428C53.0823 11.5217 52.039 11.8194 50.9779 11.7969C49.9508 11.7969 49.122 11.507 48.4915 10.9271C48.177 10.6369 47.9294 10.2819 47.7657 9.88655C47.602 9.49122 47.5262 9.06504 47.5434 8.6375C47.5223 7.99258 47.7028 7.35712 48.0599 6.81966C48.4438 6.28958 48.9221 5.83478 49.4708 5.47808C49.1487 5.04178 48.8779 4.56987 48.6636 4.07166C48.5293 3.735 48.458 3.37648 48.4535 3.01403C48.4395 2.64989 48.5093 2.28741 48.6574 1.95445C48.8054 1.62148 49.0279 1.3269 49.3076 1.09335C49.877 0.614848 50.6268 0.375594 51.557 0.375594C51.9797 0.371023 52.4003 0.435221 52.8024 0.56566C53.1579 0.676554 53.4883 0.855802 53.7751 1.09335C54.0412 1.31981 54.2529 1.60335 54.3944 1.92289C54.5452 2.26123 54.6214 2.62801 54.618 2.99839C54.6218 3.33632 54.5579 3.67158 54.4302 3.98445C54.3009 4.2919 54.109 4.56908 53.8667 4.79835C53.6391 5.02155 53.3955 5.22781 53.1378 5.41548C52.9023 5.58392 52.6042 5.77323 52.2434 5.98341C52.6906 6.53048 53.2608 7.22065 53.9539 8.05392C54.2104 7.53002 54.3623 6.96117 54.4011 6.37918H56.3308C56.31 7.53966 55.956 8.66971 55.3112 9.63475C55.42 9.77487 55.9864 10.4345 57.0105 11.6136ZM51.197 9.8248C51.7062 9.83082 52.2084 9.70529 52.6548 9.46034C51.8275 8.50036 51.1478 7.68051 50.6156 7.00077C49.9985 7.48598 49.6922 8.00696 49.6922 8.56595C49.6858 8.73933 49.7198 8.91183 49.7916 9.06978C49.8634 9.22773 49.971 9.3668 50.1058 9.47599C50.4182 9.71242 50.8035 9.83189 51.1948 9.81362L51.197 9.8248ZM51.557 2.06599C51.2734 2.05149 50.9952 2.14769 50.7811 2.33431C50.6842 2.42484 50.6081 2.53526 50.5579 2.65799C50.5077 2.78073 50.4847 2.91287 50.4904 3.04534C50.4904 3.37179 50.714 3.87191 51.1612 4.54568C51.364 4.44197 51.5603 4.32624 51.7493 4.19911C51.9055 4.09227 52.0548 3.97578 52.1965 3.8503C52.3259 3.73883 52.4348 3.60566 52.5184 3.45677C52.5893 3.32551 52.627 3.17886 52.628 3.02969C52.632 2.89974 52.6082 2.77045 52.5581 2.6505C52.5079 2.53055 52.4326 2.42273 52.3373 2.33431C52.232 2.23804 52.1086 2.16373 51.9742 2.11574C51.8398 2.06775 51.6972 2.04704 51.5547 2.05481L51.557 2.06599Z" fill="white"/>
<path d="M70.272 6.05497H76.1213C76.1139 7.79754 75.5884 9.23825 74.545 10.3771C73.5015 11.516 72.1599 12.0817 70.5202 12.0742C69.7685 12.0948 69.0205 11.9604 68.3231 11.6791C67.6256 11.3979 66.9936 10.976 66.4664 10.4397C65.3842 9.34855 64.8431 7.97642 64.8431 6.32329C64.8431 4.67017 65.3723 3.29057 66.4306 2.18451C66.9506 1.64619 67.5771 1.22205 68.27 0.939102C68.9629 0.656156 69.7072 0.520609 70.4554 0.541079C71.7463 0.518914 73.0069 0.93333 74.0329 1.71719C75.0276 2.45685 75.7102 3.54135 75.9469 4.75811H73.5186C73.3702 4.3704 73.1417 4.01839 72.8478 3.7251C72.5502 3.4324 72.1955 3.20407 71.8059 3.05431C71.3937 2.89528 70.9553 2.81489 70.5135 2.81729C70.0716 2.80108 69.6315 2.88015 69.2229 3.04913C68.8143 3.21812 68.4469 3.47307 68.1456 3.79665C67.5251 4.4893 67.1987 5.39633 67.2356 6.32553C67.2245 6.95022 67.3641 7.56838 67.6425 8.12772C67.9022 8.63968 68.3024 9.06704 68.7963 9.35974C69.317 9.663 69.911 9.81767 70.5135 9.80694C70.9714 9.81087 71.4262 9.73053 71.8551 9.56992C72.2552 9.42265 72.6206 9.19428 72.9283 8.89913C73.217 8.6239 73.4395 8.28674 73.579 7.91306H70.272V6.05497Z" fill="white"/>
<path d="M85.888 3.2891H87.5963V11.8216H85.7941L85.6063 11.0636C84.8508 11.7325 83.8716 12.0932 82.8628 12.0742C82.2731 12.0917 81.6863 11.9863 81.1396 11.7645C80.593 11.5428 80.0985 11.2096 79.6877 10.7863C79.2699 10.36 78.9426 9.85365 78.7255 9.29764C78.5084 8.74163 78.4059 8.14746 78.4243 7.55086C78.408 6.95953 78.5116 6.37102 78.7287 5.82075C78.9458 5.27048 79.272 4.76984 79.6877 4.34895C80.1008 3.92982 80.5961 3.60064 81.1425 3.38208C81.6889 3.16352 82.2746 3.0603 82.8628 3.07892C83.8871 3.05985 84.8799 3.43346 85.6376 4.12311L85.888 3.2891ZM81.396 9.23007C81.6089 9.44973 81.8651 9.62277 82.1484 9.73824C82.4316 9.85371 82.7358 9.90909 83.0416 9.90086C83.3487 9.90871 83.6541 9.85319 83.9388 9.73778C84.2235 9.62237 84.4813 9.44954 84.6963 9.23007C84.9162 9.01129 85.0891 8.7499 85.2045 8.46192C85.3198 8.17394 85.3751 7.86545 85.367 7.55533C85.3747 7.24527 85.3192 6.93688 85.2039 6.64896C85.0886 6.36104 84.9159 6.09961 84.6963 5.88059C84.4828 5.66159 84.2265 5.48898 83.9434 5.37356C83.6602 5.25814 83.3563 5.20239 83.0506 5.2098C82.6356 5.20345 82.2267 5.3101 81.8677 5.51835C81.5222 5.71841 81.2371 6.00812 81.0427 6.35684C80.842 6.72164 80.7395 7.13231 80.7453 7.54862C80.7343 7.85833 80.7863 8.16705 80.8981 8.45608C81.01 8.74511 81.1794 9.00843 81.396 9.23007Z" fill="white"/>
<path d="M95.5765 3.07885C96.1679 3.06086 96.7567 3.1654 97.3058 3.38588C97.8549 3.60637 98.3525 3.93803 98.7672 4.36005C99.184 4.78223 99.5111 5.28428 99.7289 5.83605C99.9468 6.38781 100.051 6.97791 100.035 7.57092C100.053 8.1658 99.9504 8.75818 99.7333 9.31232C99.5162 9.86647 99.1891 10.3709 98.7717 10.7952C98.3568 11.2169 97.8592 11.5482 97.3101 11.7683C96.761 11.9884 96.1723 12.0926 95.581 12.0741C94.6107 12.092 93.6672 11.7558 92.9269 11.1283L92.6563 11.8371H90.9637V0.223511H93.2511V3.76305C93.9375 3.30144 94.7495 3.06253 95.5765 3.07885ZM93.743 9.24118C93.9579 9.46065 94.2158 9.63347 94.5004 9.74888C94.7851 9.86429 95.0905 9.91981 95.3976 9.91197C95.7034 9.92019 96.0076 9.86482 96.2909 9.74935C96.5742 9.63388 96.8304 9.46084 97.0433 9.24118C97.258 9.02277 97.4263 8.76322 97.5381 8.4781C97.6499 8.19299 97.7029 7.88822 97.694 7.58209C97.7 7.16373 97.6 6.75065 97.4033 6.38138C97.216 6.02867 96.9301 5.7381 96.5804 5.54513C96.2193 5.34305 95.8114 5.2397 95.3976 5.2455C94.9868 5.23924 94.5814 5.3402 94.2215 5.53841C93.8709 5.7324 93.5831 6.02254 93.3919 6.37466C93.1903 6.74242 93.0871 7.15602 93.0923 7.57538C93.0833 7.88084 93.1363 8.18495 93.2482 8.46934C93.36 8.75373 93.5283 9.0125 93.743 9.23V9.24118Z" fill="white"/>
<path d="M107.461 3.07905C108.052 3.06106 108.641 3.1656 109.19 3.38609C109.739 3.60657 110.237 3.93824 110.651 4.36026C111.069 4.78412 111.396 5.28817 111.613 5.84194C111.83 6.39572 111.933 6.98775 111.915 7.58229C111.933 8.17718 111.83 8.76956 111.613 9.3237C111.396 9.87784 111.069 10.3823 110.651 10.8066C110.236 11.2283 109.739 11.5596 109.19 11.7797C108.641 11.9998 108.052 12.104 107.461 12.0855C106.49 12.0992 105.549 11.759 104.811 11.1285L104.545 11.8396H102.852V0.225952H105.14V3.76549C105.825 3.30397 106.635 3.06432 107.461 3.07905ZM105.625 9.2302C105.84 9.44967 106.098 9.6225 106.382 9.73791C106.667 9.85332 106.972 9.90884 107.28 9.90099C107.585 9.90922 107.889 9.85384 108.173 9.73837C108.456 9.6229 108.712 9.44986 108.925 9.2302C109.14 9.0118 109.308 8.75224 109.42 8.46713C109.532 8.18202 109.585 7.87724 109.576 7.57112C109.581 7.15287 109.481 6.74004 109.285 6.37039C109.097 6.0201 108.812 5.73135 108.465 5.53862C108.103 5.33683 107.695 5.2335 107.282 5.23899C106.867 5.23301 106.459 5.33635 106.097 5.53862C105.746 5.7326 105.458 6.02275 105.267 6.37487C105.066 6.74262 104.962 7.15622 104.968 7.57558C104.959 7.88158 105.013 8.18613 105.126 8.47062C105.239 8.75512 105.409 9.01358 105.625 9.2302Z" fill="white"/>
<path d="M121.65 3.28917H123.358V11.8216H121.556L121.368 11.0636C120.613 11.7325 119.634 12.0932 118.625 12.0743C118.035 12.0918 117.448 11.9864 116.902 11.7646C116.355 11.5429 115.861 11.2097 115.45 10.7864C115.032 10.3604 114.704 9.85408 114.487 9.298C114.27 8.74191 114.168 8.1476 114.186 7.55093C114.169 6.95879 114.272 6.36929 114.489 5.81813C114.706 5.26698 115.033 4.76565 115.45 4.34454C115.862 3.92339 116.357 3.59214 116.903 3.37164C117.45 3.15114 118.036 3.04617 118.625 3.06334C119.649 3.04427 120.642 3.41787 121.4 4.10753L121.65 3.28917ZM117.158 9.23014C117.371 9.45002 117.627 9.62321 117.91 9.73869C118.194 9.85418 118.498 9.90943 118.804 9.90093C119.111 9.90878 119.416 9.85326 119.701 9.73785C119.986 9.62244 120.243 9.44961 120.458 9.23014C120.676 9.01031 120.846 8.74842 120.959 8.46048C121.073 8.17253 121.126 7.86457 121.116 7.5554C121.125 7.24628 121.072 6.93842 120.959 6.65053C120.846 6.36265 120.676 6.10073 120.458 5.88066C120.245 5.66166 119.989 5.48905 119.705 5.37363C119.422 5.25821 119.118 5.20246 118.813 5.20987C118.397 5.20356 117.987 5.3102 117.628 5.51842C117.283 5.71958 116.999 6.00907 116.805 6.35691C116.603 6.72133 116.501 7.13226 116.507 7.54869C116.496 7.8584 116.548 8.16712 116.66 8.45615C116.772 8.74518 116.941 9.0085 117.158 9.23014Z" fill="white"/>
<path d="M131.562 3.09903C131.991 3.07929 132.419 3.15648 132.814 3.32488C133.208 3.49328 133.56 3.74854 133.843 4.07167C134.402 4.7201 134.682 5.58691 134.684 6.6721V11.8372H132.389V7.03433C132.389 5.75983 131.898 5.12258 130.916 5.12258C130.56 5.11405 130.21 5.20713 129.905 5.3909C129.608 5.57445 129.374 5.84436 129.235 6.16453C129.077 6.53923 129.001 6.94319 129.011 7.3496V11.8372H126.73V3.3025H128.295L128.743 4.36234C128.898 4.16221 129.08 3.98396 129.284 3.83242C129.493 3.67737 129.718 3.54471 129.954 3.43665C130.198 3.32589 130.453 3.24119 130.715 3.18398C130.993 3.12497 131.277 3.09649 131.562 3.09903Z" fill="white"/>
<path d="M144.868 3.28913H146.577V11.8216H144.774L144.587 11.0636C143.832 11.7314 142.855 12.0921 141.848 12.0743C141.258 12.0918 140.671 11.9863 140.124 11.7646C139.578 11.5428 139.083 11.2097 138.673 10.7863C138.254 10.3603 137.926 9.85405 137.709 9.29802C137.491 8.74198 137.389 8.14767 137.407 7.55089C137.39 6.95896 137.492 6.36966 137.709 5.81857C137.926 5.26748 138.252 4.76603 138.668 4.34451C139.082 3.92584 139.578 3.59731 140.126 3.37952C140.673 3.16174 141.259 3.05941 141.848 3.07895C142.872 3.05989 143.865 3.43349 144.622 4.12315L144.868 3.28913ZM140.376 9.23011C140.59 9.44994 140.846 9.62307 141.13 9.73854C141.414 9.85401 141.718 9.9093 142.024 9.9009C142.331 9.90843 142.636 9.85276 142.92 9.73736C143.204 9.62196 143.462 9.4493 143.677 9.23011C143.897 9.01164 144.07 8.75031 144.186 8.46226C144.301 8.1742 144.356 7.86555 144.347 7.55537C144.356 7.24524 144.3 6.93669 144.185 6.6487C144.07 6.3607 143.897 6.09933 143.677 5.88063C143.463 5.66152 143.207 5.48883 142.924 5.3734C142.641 5.25797 142.337 5.20229 142.031 5.20984C141.616 5.20348 141.207 5.31014 140.848 5.51839C140.503 5.71796 140.218 6.00783 140.025 6.35688C139.823 6.72108 139.72 7.13202 139.726 7.54865C139.715 7.85837 139.767 8.16709 139.879 8.45611C139.99 8.74514 140.16 9.00846 140.376 9.23011Z" fill="white"/>
<path d="M147.684 0.767029V1.09349H147.236V2.39034H146.885V1.09349H146.438V0.767029H147.684Z" fill="white"/>
<path d="M150 2.39034H149.644L149.486 1.3305L149.003 2.38811H148.918L148.437 1.3305L148.278 2.39034H147.921L148.175 0.767029H148.524L148.971 1.76204L149.407 0.767029H149.758L150 2.39034Z" fill="white"/>
</svg>
